<svg width="" height="" viewBox="0 0 23 23" fill="none" xmlns="http://www.w3.org/2000/svg">
<path fill-rule="evenodd" clip-rule="evenodd" d="M11.5 23C14.55 23 17.4751 21.7884 19.6317 19.6317C21.7884 17.4751 23 14.55 23 11.5C23 8.45001 21.7884 5.52494 19.6317 3.36827C17.4751 1.2116 14.55 0 11.5 0C8.45001 0 5.52494 1.2116 3.36827 3.36827C1.2116 5.52494 0 8.45001 0 11.5C0 14.55 1.2116 17.4751 3.36827 19.6317C5.52494 21.7884 8.45001 23 11.5 23ZM16.8288 9.64131C17.0907 9.3702 17.2356 9.00708 17.2323 8.63017C17.229 8.25327 17.0778 7.89272 16.8113 7.6262C16.5448 7.35967 16.1842 7.20849 15.8073 7.20522C15.4304 7.20194 15.0673 7.34684 14.7962 7.60869L10.0625 12.3424L8.20381 10.4837C7.9327 10.2218 7.56958 10.0769 7.19267 10.0802C6.81577 10.0835 6.45522 10.2347 6.1887 10.5012C5.92217 10.7677 5.77099 11.1283 5.76772 11.5052C5.76444 11.8821 5.90934 12.2452 6.17119 12.5163L9.04619 15.3913C9.31576 15.6608 9.68133 15.8122 10.0625 15.8122C10.4437 15.8122 10.8092 15.6608 11.0788 15.3913L16.8288 9.64131Z" fill="#114784"/>
</svg>
